<svg width="32" height="36" viewBox="0 0 32 36" fill="none" xmlns="http://www.w3.org/2000/svg">
<path d="M13.9426 10.3677H11.5034L13.0276 0.99707H15.4668L13.9426 10.3677Z" fill="#005CA9"/>
<path d="M9.45016 0.99707L7.1238 7.4422L6.84805 6.0534L6.0283 1.84188C6.0283 1.84188 5.92803 0.99707 4.87014 0.99707H1.02462L0.979492 1.155C0.979492 1.155 2.15521 1.40067 3.53147 2.22543L5.65227 10.3677H8.19423L12.0748 0.99707H9.45016Z" fill="#005CA9"/>
<path d="M28.6402 10.3677H30.8814L28.9285 0.99707H26.9657C26.0607 0.99707 25.8401 1.69648 25.8401 1.69648L22.2026 10.3702H24.7446L25.2535 8.9789H28.3545L28.6402 10.3677ZM25.9554 7.05364L27.2364 3.54654L27.9584 7.05364H25.9554Z" fill="#005CA9"/>
<path d="M22.3928 3.25073L22.7412 1.23772C22.7412 1.23772 21.6658 0.829102 20.5477 0.829102C19.3369 0.829102 16.4616 1.35805 16.4616 3.93259C16.4616 6.35421 19.8358 6.3843 19.8358 7.65527C19.8358 8.92625 16.81 8.70063 15.8098 7.89844L15.4463 10.0017C15.4463 10.0017 16.5368 10.5306 18.2013 10.5306C19.8659 10.5306 22.3777 9.66828 22.3777 7.32186C22.3777 4.8852 18.9734 4.65958 18.9734 3.59918C18.9709 2.53878 21.3474 2.67415 22.3928 3.25073Z" fill="#005CA9"/>
<path d="M6.84805 6.05591L6.0283 1.84188C6.0283 1.84188 5.92803 0.99707 4.87014 0.99707H1.02462L0.979492 1.155C0.979492 1.155 2.82705 1.53855 4.6019 2.97247C6.29654 4.34623 6.84805 6.05591 6.84805 6.05591Z" fill="#F7A823"/>
<path d="M19.2459 26.768C19.2459 31.8116 15.1563 35.9012 10.1127 35.9012C5.06908 35.9012 0.979492 31.8116 0.979492 26.768C0.979492 21.7244 5.06908 17.6348 10.1127 17.6348C15.1563 17.6348 19.2459 21.7244 19.2459 26.768Z" fill="#E40520"/>
<path d="M22.3748 17.6338C20.0152 17.6338 17.8633 18.5285 16.2436 19.9977C15.915 20.2966 15.6055 20.6209 15.3214 20.9644H17.1658C17.4181 21.2718 17.6513 21.5941 17.8633 21.9311H14.6239C14.431 22.2428 14.2529 22.565 14.0981 22.8979H18.3891C18.5354 23.2117 18.6647 23.5339 18.775 23.8646H13.7123C13.6063 24.1805 13.5172 24.5028 13.4473 24.8314H19.0421C19.1757 25.4547 19.2477 26.1013 19.2477 26.7649C19.2477 27.7783 19.0824 28.7556 18.7771 29.6672H13.7123C13.8225 29.998 13.9518 30.3202 14.0981 30.634H18.3891C18.2322 30.9668 18.0563 31.2912 17.8633 31.6007H14.6239C14.8359 31.9378 15.067 32.2601 15.3214 32.5675H17.1658C16.8818 32.9109 16.5743 33.2353 16.2436 33.5342C17.8655 35.0034 20.0152 35.8981 22.3748 35.8981C27.4184 35.8981 31.508 31.8085 31.508 26.7649C31.508 21.7234 27.4184 17.6338 22.3748 17.6338Z" fill="#FAB31E"/>
<path d="M30.291 31.8591C30.291 31.6959 30.4225 31.5645 30.5857 31.5645C30.7489 31.5645 30.8804 31.6959 30.8804 31.8591C30.8804 32.0224 30.7489 32.1538 30.5857 32.1538C30.4225 32.1538 30.291 32.0203 30.291 31.8591ZM30.5857 32.0817C30.7087 32.0817 30.8104 31.9821 30.8104 31.857C30.8104 31.7319 30.7108 31.6323 30.5857 31.6323C30.4606 31.6323 30.361 31.7319 30.361 31.857C30.361 31.9821 30.4606 32.0817 30.5857 32.0817ZM30.5454 31.9885H30.4839V31.7298H30.5942C30.6175 31.7298 30.6408 31.7298 30.6599 31.7425C30.6811 31.7574 30.6917 31.7828 30.6917 31.8083C30.6917 31.8379 30.6747 31.8655 30.6472 31.8761L30.6959 31.9906H30.6281L30.5878 31.8888H30.5433V31.9885H30.5454ZM30.5454 31.8401H30.5793C30.5921 31.8401 30.6048 31.8401 30.6154 31.8358C30.626 31.8295 30.6302 31.8167 30.6302 31.8061C30.6302 31.7955 30.6239 31.7849 30.6154 31.7807C30.6048 31.7743 30.5878 31.7765 30.5772 31.7765H30.5454V31.8401Z" fill="#FAB31E"/>
<path d="M7.9799 27.7696C7.87602 27.7568 7.82938 27.7547 7.75941 27.7547C7.1976 27.7547 6.91351 27.9477 6.91351 28.3293C6.91351 28.5646 7.05131 28.713 7.26968 28.713C7.67249 28.7109 7.96294 28.3271 7.9799 27.7696ZM8.70072 29.4487C8.56927 29.4487 7.87814 29.4487 7.87814 29.4487L7.89722 29.0586C7.64705 29.366 7.31208 29.5144 6.85839 29.5144C6.32201 29.5144 5.95312 29.0946 5.95312 28.4861C5.95312 27.5682 6.59338 27.0339 7.69369 27.0339C7.80605 27.0339 7.95022 27.0445 8.09862 27.0636C8.1283 26.9385 8.13678 26.8855 8.13678 26.8198C8.13678 26.5696 7.96506 26.4763 7.50077 26.4763C7.01527 26.4721 6.61458 26.5929 6.45134 26.6459C6.46194 26.5845 6.58914 25.7979 6.58914 25.7979C7.08312 25.6516 7.4096 25.5986 7.77637 25.5986C8.62864 25.5986 9.07809 25.9802 9.07809 26.7032C9.08021 26.8961 9.04841 27.1357 8.99753 27.4494C8.9106 27.9922 8.72616 29.1624 8.70072 29.4487Z" fill="#06326E"/>
<path d="M5.53761 29.4479H4.54754L5.11571 25.8862L3.8458 29.4479H3.17162L3.08682 25.9053L2.49108 29.4479H1.5625L2.33844 24.8135H3.76312L3.85004 27.4084L4.71926 24.8135H6.30507L5.53761 29.4479Z" fill="#06326E"/>
<path d="M23.6005 27.7696C23.4966 27.7568 23.45 27.7547 23.38 27.7547C22.8182 27.7547 22.5341 27.9477 22.5341 28.3293C22.5341 28.5646 22.6719 28.713 22.8903 28.713C23.2931 28.7109 23.5835 28.3271 23.6005 27.7696ZM24.3213 29.4487C24.1899 29.4487 23.4987 29.4487 23.4987 29.4487L23.5178 29.0586C23.2677 29.366 22.9327 29.5144 22.479 29.5144C21.9405 29.5144 21.5737 29.0946 21.5737 28.4861C21.5737 27.5682 22.214 27.0339 23.3143 27.0339C23.4267 27.0339 23.5708 27.0445 23.7192 27.0636C23.7489 26.9385 23.7574 26.8855 23.7574 26.8198C23.7574 26.5696 23.5857 26.4763 23.1214 26.4763C22.6359 26.4721 22.2352 26.5929 22.0719 26.6459C22.0825 26.5845 22.2097 25.7979 22.2097 25.7979C22.7037 25.6516 23.0302 25.5986 23.3949 25.5986C24.2471 25.5986 24.6966 25.9802 24.6966 26.7032C24.6987 26.8961 24.6669 27.1357 24.616 27.4494C24.5312 27.9922 24.3468 29.1624 24.3213 29.4487Z" fill="#06326E"/>
<path d="M13.1085 29.3917C12.8371 29.4765 12.6251 29.5147 12.3961 29.5147C11.8894 29.5147 11.6117 29.2242 11.6117 28.6879C11.6053 28.5204 11.6838 28.0836 11.7474 27.683C11.8046 27.331 12.1777 25.1113 12.1777 25.1113H13.1636L13.0491 25.6816H13.6448L13.5113 26.5869H12.9134C12.7989 27.3035 12.6357 28.196 12.6336 28.3147C12.6336 28.5098 12.7374 28.5946 12.9728 28.5946C13.0851 28.5946 13.1742 28.584 13.2399 28.5585L13.1085 29.3917Z" fill="#06326E"/>
<path d="M16.1293 29.359C15.7901 29.4629 15.4636 29.5137 15.1181 29.5116C14.0135 29.5095 13.439 28.935 13.439 27.8304C13.439 26.5435 14.1704 25.5938 15.1647 25.5938C15.9767 25.5938 16.4961 26.1238 16.4961 26.9569C16.4961 27.2326 16.46 27.5039 16.3752 27.8834H14.4121C14.3463 28.4325 14.6962 28.6594 15.2686 28.6594C15.6205 28.6594 15.9385 28.5873 16.2926 28.4219L16.1293 29.359ZM15.576 27.1266C15.5823 27.0481 15.6799 26.4545 15.1181 26.4545C14.8043 26.4545 14.5796 26.6941 14.4884 27.1266H15.576Z" fill="#06326E"/>
<path d="M9.29664 26.8707C9.29664 27.3477 9.52772 27.6763 10.0514 27.9222C10.4521 28.1109 10.5157 28.166 10.5157 28.3378C10.5157 28.5731 10.3376 28.6791 9.94537 28.6791C9.64857 28.6791 9.37508 28.6324 9.05707 28.5307C9.05707 28.5307 8.92775 29.3617 8.92139 29.402C9.14611 29.4508 9.34752 29.4974 9.95385 29.5144C10.999 29.5144 11.4824 29.1158 11.4824 28.2551C11.4824 27.7378 11.281 27.4325 10.7828 27.2056C10.3673 27.0148 10.3185 26.9724 10.3185 26.7965C10.3185 26.5929 10.4839 26.4891 10.804 26.4891C10.999 26.4891 11.264 26.5103 11.5163 26.5463L11.6584 25.6728C11.4019 25.6326 11.0118 25.5986 10.7849 25.5986C9.67613 25.5965 9.2924 26.1753 9.29664 26.8707Z" fill="#06326E"/>
<path d="M20.9523 25.6958C21.2279 25.6958 21.4844 25.7679 21.8385 25.9459L22.0017 24.941C21.8554 24.8838 21.3445 24.5488 20.912 24.5488C20.2484 24.5488 19.6866 24.8774 19.2923 25.4223C18.7178 25.2315 18.4803 25.6173 18.1899 26.0011L17.9333 26.0604C17.9524 25.9332 17.9715 25.8081 17.9651 25.6809H17.0535C16.9284 26.847 16.7101 28.0278 16.5362 29.196L16.4917 29.4504H17.4839C17.6493 28.3755 17.7404 27.6865 17.7955 27.2201L18.1687 27.0123C18.2238 26.8046 18.3998 26.7346 18.7496 26.7431C18.705 26.989 18.6796 27.2477 18.6796 27.5148C18.6796 28.7465 19.3453 29.514 20.4117 29.514C20.6873 29.514 20.9226 29.478 21.2873 29.3783L21.4611 28.3225C21.1325 28.4837 20.8633 28.56 20.6194 28.56C20.0428 28.56 19.6951 28.1338 19.6951 27.4321C19.693 26.4102 20.2124 25.6958 20.9523 25.6958Z" fill="#06326E"/>
<path d="M29.3479 24.8135L29.1274 26.1512C28.8561 25.7951 28.5656 25.5364 28.1819 25.5364C27.6816 25.5364 27.2258 25.9159 26.929 26.4735C26.5134 26.3866 26.0852 26.2403 26.0852 26.2403V26.2445C26.1191 25.9329 26.1318 25.7421 26.1297 25.6763H25.2181C25.0951 26.8424 24.8746 28.0232 24.7008 29.1914L24.6562 29.4458H25.6484C25.782 28.5766 25.8859 27.8536 25.9601 27.2812C26.2993 26.9738 26.4689 26.7088 26.8102 26.7258C26.6597 27.0925 26.5707 27.5144 26.5707 27.949C26.5707 28.8903 27.0477 29.5115 27.7685 29.5115C28.131 29.5115 28.4109 29.3864 28.6822 29.096L28.6356 29.4458H29.5748L30.3295 24.8135H29.3479ZM28.1077 28.5766C27.7706 28.5766 27.5989 28.3264 27.5989 27.8346C27.5989 27.0947 27.919 26.5689 28.3685 26.5689C28.7098 26.5689 28.8942 26.8275 28.8942 27.3067C28.8942 28.0529 28.5678 28.5766 28.1077 28.5766Z" fill="#06326E"/>
<path d="M5.82325 29.1724H4.83106L5.39924 25.6107L4.13145 29.1724H3.45515L3.37247 25.6319L2.77461 29.1724H1.84814L2.62197 24.54H4.04876L4.08904 27.4085L5.04943 24.54H6.59071L5.82325 29.1724Z" fill="white"/>
<path d="M8.26538 27.4934C8.16149 27.4806 8.11485 27.4785 8.04489 27.4785C7.48308 27.4785 7.19899 27.6715 7.19899 28.0509C7.19899 28.2863 7.33891 28.4347 7.55516 28.4347C7.95585 28.4368 8.24842 28.0509 8.26538 27.4934ZM8.9862 29.1725C8.85475 29.1725 8.16573 29.1725 8.16573 29.1725L8.18482 28.7824C7.93465 29.0898 7.59968 29.2382 7.14599 29.2382C6.60749 29.2382 6.24072 28.8184 6.24072 28.2078C6.24072 27.2898 6.88098 26.7556 7.98129 26.7556C8.09365 26.7556 8.23782 26.7662 8.38622 26.7853C8.4159 26.6602 8.42438 26.6072 8.42438 26.5393C8.42438 26.2892 8.25266 26.198 7.78836 26.198C7.30287 26.1917 6.90218 26.3125 6.73894 26.3676C6.74954 26.3061 6.87674 25.5196 6.87674 25.5196C7.37071 25.3754 7.6972 25.3203 8.06397 25.3203C8.91623 25.3203 9.36569 25.7019 9.36569 26.4249C9.36781 26.6178 9.33601 26.8574 9.28512 27.1711C9.19608 27.7181 9.01164 28.8884 8.9862 29.1725Z" fill="white"/>
<path d="M22.2855 24.6654L22.1223 25.6703C21.7682 25.4922 21.5117 25.4201 21.2361 25.4201C20.4962 25.4201 19.9768 26.1367 19.9768 27.1564C19.9768 27.8603 20.3266 28.2843 20.9032 28.2843C21.147 28.2843 21.4163 28.208 21.7449 28.0469L21.571 29.1026C21.2064 29.2023 20.969 29.2383 20.6955 29.2383C19.627 29.2383 18.9634 28.4709 18.9634 27.2391C18.9634 25.5834 19.8835 24.4258 21.1958 24.4258C21.6283 24.4237 22.1392 24.6081 22.2855 24.6654Z" fill="white"/>
<path d="M23.884 27.4934C23.7801 27.4806 23.7335 27.4785 23.6635 27.4785C23.1017 27.4785 22.8176 27.6715 22.8176 28.0509C22.8176 28.2863 22.9554 28.4347 23.1738 28.4347C23.5766 28.4368 23.8692 28.0509 23.884 27.4934ZM24.607 29.1725C24.4755 29.1725 23.7844 29.1725 23.7844 29.1725L23.8035 28.7824C23.5533 29.0898 23.2183 29.2382 22.7646 29.2382C22.2261 29.2382 21.8594 28.8184 21.8594 28.2078C21.8594 27.2898 22.4996 26.7556 23.5999 26.7556C23.7123 26.7556 23.8565 26.7662 24.0028 26.7853C24.0324 26.6602 24.0409 26.6072 24.0409 26.5393C24.0409 26.2892 23.8692 26.198 23.4049 26.198C22.9194 26.1917 22.5208 26.3125 22.3555 26.3676C22.3661 26.3061 22.4933 25.5196 22.4933 25.5196C22.9872 25.3754 23.3137 25.3203 23.6805 25.3203C24.5328 25.3203 24.9822 25.7019 24.9822 26.4249C24.9843 26.6178 24.9525 26.8574 24.9017 27.1711C24.8169 27.7181 24.6324 28.8884 24.607 29.1725Z" fill="white"/>
<path d="M13.3921 29.1154C13.1208 29.2002 12.9088 29.2383 12.6798 29.2383C12.1731 29.2383 11.8954 28.9458 11.8954 28.4115C11.889 28.244 11.9675 27.8073 12.0311 27.4066C12.0883 27.0547 12.4614 24.835 12.4614 24.835H13.4473L13.3328 25.4053H13.8395L13.7059 26.3105H13.1992C13.0847 27.0271 12.9215 27.9196 12.9194 28.0384C12.9194 28.2334 13.0233 28.3182 13.2586 28.3182C13.3709 28.3182 13.46 28.3076 13.5257 28.2822L13.3921 29.1154Z" fill="white"/>
<path d="M16.415 29.0855C16.0758 29.1894 15.7493 29.2382 15.4037 29.2382C14.2991 29.2382 13.7246 28.6615 13.7246 27.557C13.7246 26.268 14.456 25.3203 15.4482 25.3203C16.2623 25.3203 16.7796 25.8503 16.7796 26.6835C16.7796 26.9591 16.7436 27.2284 16.6588 27.61H14.6956C14.6299 28.1569 14.9797 28.3838 15.5521 28.3838C15.904 28.3838 16.2242 28.3117 16.5782 28.1463L16.415 29.0855ZM15.8616 26.851C15.868 26.7726 15.9655 26.1789 15.4037 26.1789C15.0899 26.1789 14.8652 26.4185 14.774 26.851H15.8616Z" fill="white"/>
<path d="M9.57984 26.5966C9.57984 27.0736 9.81093 27.4022 10.3346 27.6481C10.7353 27.8368 10.7989 27.8919 10.7989 28.0637C10.7989 28.299 10.6229 28.405 10.2286 28.405C9.93177 28.405 9.65828 28.3584 9.34027 28.2566C9.34027 28.2566 9.21095 29.0877 9.20459 29.1258C9.42932 29.1746 9.63072 29.2212 10.2371 29.2382C11.2844 29.2382 11.7656 28.8396 11.7656 27.9789C11.7656 27.4616 11.5642 27.1563 11.066 26.9294C10.6505 26.7386 10.6017 26.6962 10.6017 26.5203C10.6017 26.3167 10.7671 26.2107 11.0872 26.2107C11.2822 26.2107 11.5473 26.2319 11.7995 26.268L11.9416 25.3945C11.6851 25.3542 11.295 25.3203 11.0681 25.3203C9.96145 25.3203 9.57772 25.8991 9.57984 26.5966Z" fill="white"/>
<path d="M29.8541 29.1724H28.917L28.9636 28.8226C28.6923 29.113 28.4124 29.2381 28.0499 29.2381C27.3291 29.2381 26.8521 28.6169 26.8521 27.6756C26.8521 26.4226 27.5919 25.3669 28.4654 25.3669C28.8491 25.3669 29.1417 25.5237 29.4131 25.8799L29.6336 24.54H30.6109L29.8541 29.1724ZM28.3912 28.301C28.8534 28.301 29.1778 27.7774 29.1778 27.0311C29.1778 26.552 28.9933 26.2933 28.652 26.2933C28.2025 26.2933 27.8824 26.8191 27.8824 27.559C27.8845 28.053 28.0541 28.301 28.3912 28.301Z" fill="white"/>
<path d="M25.4993 25.4053C25.3742 26.5713 25.1559 27.7522 24.982 28.9182L24.9375 29.1726H25.9297C26.2837 26.8681 26.3707 26.4187 26.9261 26.4759C27.0152 26.0053 27.1805 25.5918 27.3035 25.3841C26.888 25.2972 26.6569 25.5325 26.3516 25.9777C26.3749 25.7848 26.4194 25.5982 26.4109 25.4053H25.4993Z" fill="white"/>
<path d="M17.3372 25.4053C17.2121 26.5713 16.9916 27.7522 16.8199 28.9182L16.7754 29.1726H17.7676C18.1216 26.8681 18.2085 26.4187 18.764 26.4759C18.853 26.0053 19.0184 25.5918 19.1414 25.3841C18.7258 25.2972 18.4948 25.5325 18.1916 25.9777C18.2149 25.7848 18.2594 25.5982 18.2509 25.4053H17.3372Z" fill="white"/>
<path d="M30.291 28.8777C30.291 28.7145 30.4225 28.583 30.5857 28.583C30.7489 28.583 30.8804 28.7145 30.8804 28.8777C30.8804 29.0409 30.7489 29.1724 30.5857 29.1724C30.4225 29.1724 30.291 29.0388 30.291 28.8777ZM30.5857 29.1024C30.7108 29.1024 30.8104 29.0028 30.8104 28.8777C30.8104 28.7547 30.7108 28.653 30.5857 28.653C30.4627 28.653 30.361 28.7526 30.361 28.8777C30.361 29.0007 30.4606 29.1024 30.5857 29.1024ZM30.5454 29.007H30.4839V28.7484H30.5942C30.6175 28.7484 30.6408 28.7484 30.6599 28.7611C30.6811 28.7759 30.6938 28.7993 30.6938 28.8247C30.6938 28.8544 30.6769 28.8819 30.6493 28.8925L30.6959 29.007H30.6281L30.5878 28.9053H30.5433V29.007H30.5454ZM30.5454 28.8586H30.5793C30.5921 28.8586 30.6048 28.8607 30.6154 28.8544C30.626 28.848 30.6302 28.8353 30.6302 28.8247C30.6302 28.8141 30.6239 28.8035 30.6154 28.7971C30.6048 28.7908 30.5878 28.7929 30.5772 28.7929H30.5454V28.8586Z" fill="white"/>
</svg>
